<svg width="70" height="70" viewBox="0 0 70 70" fill="none" xmlns="http://www.w3.org/2000/svg">
<path d="M8.48828 66L10.9395 48.8125H14.3965L17.0039 66H14.5625L14.1523 62.9336H11.3789L11.0078 66H8.48828ZM11.6328 60.834H13.8789L12.7266 52.2012H12.6875L11.6328 60.834ZM21.8469 66.1465C21.0526 66.1465 20.4634 65.9349 20.0793 65.5117C19.6952 65.082 19.4445 64.5026 19.3273 63.7734C19.2102 63.0443 19.1516 62.2272 19.1516 61.3223V55.3555C19.1516 54.5677 19.246 53.8613 19.4348 53.2363C19.6236 52.6048 19.9296 52.1035 20.3527 51.7324C20.7824 51.3613 21.3488 51.1758 22.052 51.1758C22.4686 51.1758 22.843 51.2767 23.175 51.4785C23.507 51.6738 23.7642 51.9342 23.9465 52.2598V48.666H26.5344V66H23.9465V64.6426C23.7512 65.1374 23.4777 65.5117 23.1262 65.7656C22.7746 66.0195 22.3482 66.1465 21.8469 66.1465ZM22.8039 64.0859C23.1164 64.0859 23.354 63.9948 23.5168 63.8125C23.6861 63.6237 23.8 63.3372 23.8586 62.9531C23.9237 62.5625 23.9562 62.071 23.9562 61.4785V55.6191C23.9562 54.903 23.8846 54.3333 23.7414 53.9102C23.6047 53.487 23.3052 53.2754 22.843 53.2754C22.4003 53.2754 22.1073 53.4837 21.9641 53.9004C21.8273 54.3105 21.759 54.8932 21.759 55.6484V61.6738C21.759 62.1751 21.7883 62.6081 21.8469 62.9727C21.912 63.3307 22.0194 63.6074 22.1691 63.8027C22.3189 63.9915 22.5305 64.0859 22.8039 64.0859ZM32.4223 66.1855C31.8428 66.1855 31.3578 66.0553 30.9672 65.7949C30.5831 65.5345 30.2934 65.1471 30.098 64.6328C29.9092 64.112 29.8148 63.4609 29.8148 62.6797V51.3516H32.4125V62.2793C32.4125 62.8392 32.4809 63.2754 32.6176 63.5879C32.7543 63.9004 33.0408 64.0566 33.477 64.0566C33.9327 64.0566 34.2419 63.8809 34.4047 63.5293C34.574 63.1712 34.6586 62.7611 34.6586 62.2988L34.6684 51.3516H37.2465V66H34.6586V64.4766C34.4763 64.9714 34.2126 65.3815 33.8676 65.707C33.5225 66.026 33.0408 66.1855 32.4223 66.1855ZM40.5758 66V48.666H43.1539V66H40.5758ZM49.2078 66.0977C48.5828 66.0977 48.1043 66.0195 47.7723 65.8633C47.4402 65.7005 47.2124 65.4466 47.0887 65.1016C46.965 64.7565 46.9031 64.3105 46.9031 63.7637V53.5293H45.7117V51.6543H46.9031V48.8125H49.491V51.6543H50.9168V53.5293H49.491V63.3145C49.491 63.5423 49.5268 63.7148 49.5984 63.832C49.6701 63.9492 49.81 64.0273 50.0184 64.0664C50.2332 64.1055 50.549 64.125 50.9656 64.125V66.0977H49.2078ZM57.0586 66.1758C56.3555 66.1758 55.7663 66.0684 55.291 65.8535C54.8158 65.6322 54.4382 65.3164 54.1582 64.9062C53.8848 64.4896 53.6862 63.985 53.5625 63.3926C53.4453 62.7936 53.3867 62.1133 53.3867 61.3516V55.873C53.3867 54.9551 53.5039 54.1445 53.7383 53.4414C53.9792 52.7318 54.3698 52.1784 54.9102 51.7812C55.4505 51.3776 56.1667 51.1758 57.0586 51.1758C57.7357 51.1758 58.3053 51.2897 58.7676 51.5176C59.2363 51.7454 59.6107 52.071 59.8906 52.4941C60.1771 52.9108 60.3854 53.4056 60.5156 53.9785C60.6458 54.5514 60.7109 55.1829 60.7109 55.873V61.3516C60.7109 62.1003 60.6523 62.7708 60.5352 63.3633C60.4245 63.9557 60.2292 64.4635 59.9492 64.8867C59.6758 65.3034 59.3047 65.6224 58.8359 65.8438C58.3672 66.0651 57.7747 66.1758 57.0586 66.1758ZM57.0586 64.0859C57.3516 64.0859 57.5729 63.998 57.7227 63.8223C57.8724 63.64 57.9733 63.3893 58.0254 63.0703C58.0775 62.7513 58.1035 62.3835 58.1035 61.9668V55.4141C58.1035 54.9714 58.0742 54.5905 58.0156 54.2715C57.957 53.9525 57.8529 53.7051 57.7031 53.5293C57.5534 53.3535 57.3385 53.2656 57.0586 53.2656C56.7656 53.2656 56.541 53.3535 56.3848 53.5293C56.235 53.7051 56.1309 53.9525 56.0723 54.2715C56.0202 54.5905 55.9941 54.9714 55.9941 55.4141V61.9668C55.9941 62.3835 56.0202 62.7513 56.0723 63.0703C56.1309 63.3893 56.235 63.64 56.3848 63.8223C56.541 63.998 56.7656 64.0859 57.0586 64.0859Z" fill="#3E0005"/>
<path d="M44.9233 14.1597C50.4886 14.1598 55.0005 18.6716 55.0005 24.2368V33.6108H34.8462V24.2368L34.8589 23.7183C35.1287 18.3938 39.5318 14.1597 44.9233 14.1597Z" stroke="#3E0005" stroke-width="4"/>
<path d="M44.9231 3C47.9254 3.00005 50.5129 5.34988 50.5129 8.43359C50.5129 11.5173 47.9255 13.8671 44.9231 13.8672C41.9207 13.8672 39.3333 11.5174 39.3333 8.43359C39.3333 5.34984 41.9207 3 44.9231 3Z" stroke="#3E0005" stroke-width="4"/>
<g opacity="0.5">
<path d="M22.9355 20.1685C26.766 20.1685 29.8719 23.2736 29.8721 27.104V33.6108H16V27.104C16.0002 23.2737 19.1052 20.1686 22.9355 20.1685Z" stroke="#3E0005" stroke-width="4"/>
<path d="M22.936 10.7256C25.4428 10.7256 27.6284 12.6911 27.6284 15.3008C27.6284 17.9105 25.4428 19.8759 22.936 19.876C20.4293 19.876 18.2437 17.9105 18.2437 15.3008C18.2437 12.6911 20.4293 10.7256 22.936 10.7256Z" stroke="#3E0005" stroke-width="4"/>
</g>
</svg>
