<svg width="70" height="70" viewBox="0 0 70 70" fill="none" xmlns="http://www.w3.org/2000/svg">
<path d="M7.98008 66L10.4312 48.8125H13.8883L16.4957 66H14.0543L13.6441 62.9336H10.8707L10.4996 66H7.98008ZM11.1246 60.834H13.3707L12.2184 52.2012H12.1793L11.1246 60.834ZM18.8484 66V51.3516H21.4363V52.9434C21.5796 52.4225 21.84 51.9993 22.2176 51.6738C22.6017 51.3418 23.1225 51.1758 23.7801 51.1758C24.2814 51.1758 24.7176 51.2865 25.0887 51.5078C25.4598 51.7292 25.7462 52.11 25.948 52.6504C26.1954 52.1947 26.521 51.8366 26.9246 51.5762C27.3283 51.3092 27.8328 51.1758 28.4383 51.1758C29.3888 51.1758 30.0626 51.4948 30.4598 52.1328C30.8569 52.7708 31.0555 53.653 31.0555 54.7793V66H28.4773V54.75C28.4773 54.2292 28.3895 53.8581 28.2137 53.6367C28.0379 53.4089 27.797 53.2949 27.491 53.2949C27.1004 53.2949 26.7944 53.4316 26.573 53.7051C26.3582 53.972 26.2508 54.3659 26.2508 54.8867V66H23.6629V54.7305C23.6629 54.2943 23.588 53.946 23.4383 53.6855C23.2951 53.4251 23.0509 53.2949 22.7059 53.2949C22.2566 53.2949 21.9311 53.4674 21.7293 53.8125C21.534 54.151 21.4363 54.5547 21.4363 55.0234V66H18.8484ZM38.9941 66.1465C38.5579 66.1465 38.1608 66.0293 37.8027 65.7949C37.4512 65.554 37.1712 65.1667 36.9629 64.6328V66H34.375V48.666H36.9629V52.4062C37.1126 52.0221 37.3665 51.7227 37.7246 51.5078C38.0827 51.293 38.4408 51.1823 38.7988 51.1758C39.5736 51.1628 40.1725 51.3451 40.5957 51.7227C41.0189 52.0938 41.3118 52.6113 41.4746 53.2754C41.6439 53.9395 41.7285 54.7012 41.7285 55.5605V61.7617C41.7285 62.5885 41.6471 63.334 41.4844 63.998C41.3216 64.6621 41.0417 65.1862 40.6445 65.5703C40.2474 65.9544 39.6973 66.1465 38.9941 66.1465ZM38.125 64.0762C38.5742 64.0762 38.8542 63.8613 38.9648 63.4316C39.0755 62.9954 39.1309 62.3574 39.1309 61.5176V55.5215C39.1309 55.0788 39.1081 54.6882 39.0625 54.3496C39.0234 54.0111 38.9355 53.7474 38.7988 53.5586C38.6621 53.3633 38.444 53.2656 38.1445 53.2656C37.8776 53.2656 37.6562 53.3307 37.4805 53.4609C37.3047 53.5911 37.1745 53.819 37.0898 54.1445C37.0052 54.4701 36.9629 54.9258 36.9629 55.5117V61.5469C36.9629 62.3542 37.0312 62.9792 37.168 63.4219C37.3112 63.8581 37.6302 64.0762 38.125 64.0762ZM48.3488 66.1758C47.6457 66.1758 47.0565 66.0684 46.5813 65.8535C46.106 65.6322 45.7284 65.3164 45.4484 64.9062C45.175 64.4896 44.9764 63.985 44.8527 63.3926C44.7355 62.7936 44.677 62.1133 44.677 61.3516V55.873C44.677 54.9551 44.7941 54.1445 45.0285 53.4414C45.2694 52.7318 45.66 52.1784 46.2004 51.7812C46.7408 51.3776 47.4569 51.1758 48.3488 51.1758C49.0259 51.1758 49.5956 51.2897 50.0578 51.5176C50.5266 51.7454 50.9009 52.071 51.1809 52.4941C51.4673 52.9108 51.6757 53.4056 51.8059 53.9785C51.9361 54.5514 52.0012 55.1829 52.0012 55.873V61.3516C52.0012 62.1003 51.9426 62.7708 51.8254 63.3633C51.7147 63.9557 51.5194 64.4635 51.2395 64.8867C50.966 65.3034 50.5949 65.6224 50.1262 65.8438C49.6574 66.0651 49.065 66.1758 48.3488 66.1758ZM48.3488 64.0859C48.6418 64.0859 48.8632 63.998 49.0129 63.8223C49.1626 63.64 49.2635 63.3893 49.3156 63.0703C49.3677 62.7513 49.3938 62.3835 49.3938 61.9668V55.4141C49.3938 54.9714 49.3645 54.5905 49.3059 54.2715C49.2473 53.9525 49.1431 53.7051 48.9934 53.5293C48.8436 53.3535 48.6288 53.2656 48.3488 53.2656C48.0559 53.2656 47.8313 53.3535 47.675 53.5293C47.5253 53.7051 47.4211 53.9525 47.3625 54.2715C47.3104 54.5905 47.2844 54.9714 47.2844 55.4141V61.9668C47.2844 62.3835 47.3104 62.7513 47.3625 63.0703C47.4211 63.3893 47.5253 63.64 47.675 63.8223C47.8313 63.998 48.0559 64.0859 48.3488 64.0859ZM58.1918 66.1855C57.0134 66.1855 56.1378 65.8503 55.5648 65.1797C54.9919 64.5091 54.7055 63.4121 54.7055 61.8887V60.9414H57.1371V62.123C57.1371 62.7611 57.2152 63.2461 57.3715 63.5781C57.5277 63.9102 57.7816 64.0762 58.1332 64.0762C58.4717 64.0762 58.7224 63.9622 58.8852 63.7344C59.0479 63.5065 59.1293 63.1126 59.1293 62.5527C59.1293 62.2272 59.0805 61.9115 58.9828 61.6055C58.8917 61.2995 58.7452 61 58.5434 60.707C58.348 60.4076 58.0941 60.1178 57.7816 59.8379L56.4633 58.6465C55.8578 58.0996 55.4053 57.5104 55.1059 56.8789C54.8064 56.2409 54.6566 55.5378 54.6566 54.7695C54.6566 53.526 54.9464 52.6178 55.5258 52.0449C56.1117 51.4655 56.9776 51.1758 58.1234 51.1758C58.8656 51.1758 59.4809 51.3158 59.9691 51.5957C60.4574 51.8691 60.822 52.3151 61.0629 52.9336C61.3038 53.5521 61.4242 54.3822 61.4242 55.4238V56.2246H59.1098V55.2578C59.1098 54.6133 59.0349 54.125 58.8852 53.793C58.7419 53.4609 58.4945 53.2949 58.143 53.2949C57.7979 53.2949 57.544 53.3926 57.3812 53.5879C57.2185 53.7767 57.1306 54.112 57.1176 54.5938C57.1111 54.8542 57.1436 55.1113 57.2152 55.3652C57.2868 55.6126 57.3975 55.8568 57.5473 56.0977C57.7035 56.332 57.9053 56.5632 58.1527 56.791L59.5395 58.0508C60.2686 58.7083 60.8057 59.3952 61.1508 60.1113C61.5023 60.8275 61.6781 61.6022 61.6781 62.4355C61.6781 63.666 61.3982 64.6003 60.8383 65.2383C60.2784 65.8698 59.3962 66.1855 58.1918 66.1855Z" fill="#3E0005"/>
<path d="M44.9233 14.1597C50.4886 14.1598 55.0005 18.6716 55.0005 24.2368V33.6108H34.8462V24.2368L34.8589 23.7183C35.1287 18.3938 39.5318 14.1597 44.9233 14.1597Z" stroke="#3E0005" stroke-width="4"/>
<path d="M44.9231 3C47.9254 3.00005 50.5129 5.34988 50.5129 8.43359C50.5129 11.5173 47.9255 13.8671 44.9231 13.8672C41.9207 13.8672 39.3333 11.5174 39.3333 8.43359C39.3333 5.34984 41.9207 3 44.9231 3Z" stroke="#3E0005" stroke-width="4"/>
<path d="M22.9355 20.1685C26.766 20.1685 29.8719 23.2736 29.8721 27.104V33.6108H16V27.104C16.0002 23.2737 19.1052 20.1686 22.9355 20.1685Z" stroke="#3E0005" stroke-width="4"/>
<path d="M22.936 10.7256C25.4428 10.7256 27.6284 12.6911 27.6284 15.3008C27.6284 17.9105 25.4428 19.8759 22.936 19.876C20.4293 19.876 18.2437 17.9105 18.2437 15.3008C18.2437 12.6911 20.4293 10.7256 22.936 10.7256Z" stroke="#3E0005" stroke-width="4"/>
</svg>
