<svg width="70" height="70" viewBox="0 0 70 70" fill="none" xmlns="http://www.w3.org/2000/svg">
<path d="M5.50039 66V48.8125H11.3988V51.0879H8.11758V55.6582H11.1645V57.9434H8.11758V66H5.50039ZM16.1246 66.1465C15.122 66.1465 14.4254 65.7819 14.0348 65.0527C13.6507 64.3236 13.4521 63.3568 13.4391 62.1523V61.2148C13.4391 60.4336 13.5497 59.7988 13.7711 59.3105C13.999 58.8223 14.3212 58.4251 14.7379 58.1191C15.1546 57.8132 15.6526 57.5462 16.232 57.3184C16.8115 57.0905 17.456 56.8464 18.1656 56.5859V55.3066C18.1656 54.8118 18.1461 54.418 18.107 54.125C18.068 53.8255 17.9801 53.6074 17.8434 53.4707C17.7066 53.334 17.4951 53.2656 17.2086 53.2656C16.9286 53.2656 16.7138 53.3372 16.5641 53.4805C16.4208 53.6172 16.3232 53.832 16.2711 54.125C16.219 54.4115 16.193 54.7793 16.193 55.2285V55.8828H13.6344V55.4434C13.6344 54.7728 13.6897 54.1738 13.8004 53.6465C13.9176 53.1191 14.1129 52.6732 14.3863 52.3086C14.6598 51.9375 15.0309 51.6576 15.4996 51.4688C15.9749 51.2734 16.5706 51.1758 17.2867 51.1758C17.9182 51.1758 18.4586 51.2669 18.9078 51.4492C19.357 51.625 19.7216 51.8919 20.0016 52.25C20.2815 52.6016 20.4866 53.0443 20.6168 53.5781C20.747 54.112 20.8121 54.7337 20.8121 55.4434V66H18.2047V64.5449C18.1266 64.8249 17.9931 65.0885 17.8043 65.3359C17.6155 65.5768 17.3779 65.7721 17.0914 65.9219C16.8115 66.0716 16.4892 66.1465 16.1246 66.1465ZM17.023 64.1543C17.3486 64.1543 17.609 64.0371 17.8043 63.8027C17.9996 63.5684 18.1201 63.3307 18.1656 63.0898V58.0508C17.775 58.2266 17.4462 58.3926 17.1793 58.5488C16.9124 58.6986 16.6975 58.8646 16.5348 59.0469C16.372 59.2292 16.2548 59.444 16.1832 59.6914C16.1116 59.9388 16.0758 60.2415 16.0758 60.5996V62.2402C16.0758 62.9108 16.1441 63.3991 16.2809 63.7051C16.4241 64.0046 16.6715 64.1543 17.023 64.1543ZM24.0047 66V51.3516H26.5926V52.9434C26.7358 52.4225 26.9962 51.9993 27.3738 51.6738C27.7579 51.3418 28.2788 51.1758 28.9363 51.1758C29.4376 51.1758 29.8738 51.2865 30.2449 51.5078C30.616 51.7292 30.9025 52.11 31.1043 52.6504C31.3517 52.1947 31.6772 51.8366 32.0809 51.5762C32.4845 51.3092 32.9891 51.1758 33.5945 51.1758C34.5451 51.1758 35.2189 51.4948 35.616 52.1328C36.0132 52.7708 36.2117 53.653 36.2117 54.7793V66H33.6336V54.75C33.6336 54.2292 33.5457 53.8581 33.3699 53.6367C33.1941 53.4089 32.9533 53.2949 32.6473 53.2949C32.2566 53.2949 31.9507 53.4316 31.7293 53.7051C31.5145 53.972 31.407 54.3659 31.407 54.8867V66H28.8191V54.7305C28.8191 54.2943 28.7443 53.946 28.5945 53.6855C28.4513 53.4251 28.2072 53.2949 27.8621 53.2949C27.4129 53.2949 27.0874 53.4674 26.8855 53.8125C26.6902 54.151 26.5926 54.5547 26.5926 55.0234V66H24.0047ZM39.541 66V51.3516H42.1289V66H39.541ZM39.3848 49.9844L40.3027 45.9512H42.8906L40.9082 49.9844H39.3848ZM45.5559 66V48.666H48.134V66H45.5559ZM51.5902 66V51.3516H54.1781V66H51.5902ZM51.5805 50.0039V47.7578H54.1879V50.0039H51.5805ZM59.9879 66.1465C58.9853 66.1465 58.2887 65.7819 57.898 65.0527C57.5139 64.3236 57.3154 63.3568 57.3023 62.1523V61.2148C57.3023 60.4336 57.413 59.7988 57.6344 59.3105C57.8622 58.8223 58.1845 58.4251 58.6012 58.1191C59.0178 57.8132 59.5159 57.5462 60.0953 57.3184C60.6747 57.0905 61.3193 56.8464 62.0289 56.5859V55.3066C62.0289 54.8118 62.0094 54.418 61.9703 54.125C61.9313 53.8255 61.8434 53.6074 61.7066 53.4707C61.5699 53.334 61.3583 53.2656 61.0719 53.2656C60.7919 53.2656 60.5771 53.3372 60.4273 53.4805C60.2841 53.6172 60.1865 53.832 60.1344 54.125C60.0823 54.4115 60.0563 54.7793 60.0563 55.2285V55.8828H57.4977V55.4434C57.4977 54.7728 57.553 54.1738 57.6637 53.6465C57.7809 53.1191 57.9762 52.6732 58.2496 52.3086C58.523 51.9375 58.8941 51.6576 59.3629 51.4688C59.8382 51.2734 60.4339 51.1758 61.15 51.1758C61.7815 51.1758 62.3219 51.2669 62.7711 51.4492C63.2203 51.625 63.5849 51.8919 63.8648 52.25C64.1448 52.6016 64.3499 53.0443 64.4801 53.5781C64.6103 54.112 64.6754 54.7337 64.6754 55.4434V66H62.068V64.5449C61.9898 64.8249 61.8564 65.0885 61.6676 65.3359C61.4788 65.5768 61.2411 65.7721 60.9547 65.9219C60.6747 66.0716 60.3525 66.1465 59.9879 66.1465ZM60.8863 64.1543C61.2119 64.1543 61.4723 64.0371 61.6676 63.8027C61.8629 63.5684 61.9833 63.3307 62.0289 63.0898V58.0508C61.6383 58.2266 61.3095 58.3926 61.0426 58.5488C60.7757 58.6986 60.5608 58.8646 60.398 59.0469C60.2353 59.2292 60.1181 59.444 60.0465 59.6914C59.9749 59.9388 59.9391 60.2415 59.9391 60.5996V62.2402C59.9391 62.9108 60.0074 63.3991 60.1441 63.7051C60.2874 64.0046 60.5348 64.1543 60.8863 64.1543Z" fill="#3E0005"/>
<path fill-rule="evenodd" clip-rule="evenodd" d="M17.7062 13.7316C19.1717 12.2301 20.0308 10.1479 20.0308 8C20.0308 3.87907 16.8686 0 12.3289 0C7.78915 0 4.62694 3.87907 4.62694 8C4.62694 10.1478 5.48593 12.2299 6.95123 13.7314C2.83659 15.7288 0 19.9474 0 24.8285V34V38H4H20.6569H24.6569V34V24.8285C24.6569 19.9476 21.8206 15.7292 17.7062 13.7316ZM16.0308 8C16.0308 10.2091 14.3734 12 12.3289 12C10.2843 12 8.62694 10.2091 8.62694 8C8.62694 5.79086 10.2843 4 12.3289 4C14.3734 4 16.0308 5.79086 16.0308 8ZM4 24.8285C4 20.2288 7.72878 16.5 12.3285 16.5C16.9281 16.5 20.6569 20.2288 20.6569 24.8285V30V34H16.6569H8H4V30V24.8285ZM70.0009 38H66.0009H49.344H45.344V34V24.8285C45.344 19.9475 48.1805 15.729 52.295 13.7314C50.8297 12.23 49.9706 10.1478 49.9706 8C49.9706 3.87907 53.1328 0 57.6726 0C62.2123 0 65.3745 3.87907 65.3745 8C65.3745 10.1479 64.5154 12.2301 63.05 13.7315C67.1645 15.7291 70.0009 19.9475 70.0009 24.8285V34V38ZM57.6724 16.5C53.0727 16.5 49.344 20.2288 49.344 24.8285V30V34H53.344H62.0009H66.0009V30V24.8285C66.0009 20.2288 62.2721 16.5 57.6724 16.5ZM61.3745 8C61.3745 10.2091 59.7171 12 57.6726 12C55.628 12 53.9706 10.2091 53.9706 8C53.9706 5.79086 55.628 4 57.6726 4C59.7171 4 61.3745 5.79086 61.3745 8ZM44.0901 38H40.0901H29.9109H25.9109V34V28.3952C25.9109 25.2036 27.5558 22.3962 30.0441 20.7745C28.8889 19.4776 28.224 17.7554 28.224 16C28.224 12.4314 30.9719 9 35.0005 9C39.029 9 41.7769 12.4314 41.7769 16C41.7769 17.7554 41.112 19.4776 39.9569 20.7745C42.4452 22.3962 44.0901 25.2036 44.0901 28.3952V34V38ZM35.0005 23.3056C32.1896 23.3056 29.9109 25.5842 29.9109 28.3952V30V34H33.9109H36.0901H40.0901V30V28.3952C40.0901 25.5843 37.8114 23.3056 35.0005 23.3056ZM37.7769 16C37.7769 17.6569 36.5338 19 35.0005 19C33.4671 19 32.224 17.6569 32.224 16C32.224 14.3431 33.4671 13 35.0005 13C36.5338 13 37.7769 14.3431 37.7769 16Z" fill="#3E0005"/>
</svg>
