<svg width="75" height="70" viewBox="0 0 75 70" fill="none" xmlns="http://www.w3.org/2000/svg">
<path d="M0.30547 66V48.8125H6.20391V51.0879H2.92266V55.6582H5.96953V57.9434H2.92266V66H0.30547ZM12.0527 66.1758C11.3171 66.1758 10.7116 66.0586 10.2363 65.8242C9.76758 65.5898 9.39974 65.2513 9.13281 64.8086C8.8724 64.3659 8.69011 63.8353 8.58594 63.2168C8.48177 62.5918 8.42969 61.8952 8.42969 61.127V55.668C8.42969 54.9844 8.49805 54.3659 8.63477 53.8125C8.778 53.2591 8.99609 52.7871 9.28906 52.3965C9.58854 52.0059 9.97591 51.7064 10.4512 51.498C10.9264 51.2832 11.4993 51.1758 12.1699 51.1758C12.8535 51.1758 13.4232 51.2799 13.8789 51.4883C14.3346 51.6966 14.6927 51.9993 14.9531 52.3965C15.2201 52.7936 15.4089 53.2721 15.5195 53.832C15.6367 54.3854 15.6953 55.0137 15.6953 55.7168V58.8516H11.0371V61.7324C11.0371 62.4421 11.0924 63.0117 11.2031 63.4414C11.3138 63.8711 11.6165 64.0859 12.1113 64.0859C12.4434 64.0859 12.6777 63.985 12.8145 63.7832C12.9577 63.5814 13.0423 63.3047 13.0684 62.9531C13.1009 62.5951 13.1172 62.1882 13.1172 61.7324V60.4434H15.6758V61.2246C15.6758 62.0124 15.627 62.7122 15.5293 63.3242C15.4382 63.9362 15.2624 64.4538 15.002 64.877C14.748 65.3001 14.3835 65.6224 13.9082 65.8438C13.4329 66.0651 12.8145 66.1758 12.0527 66.1758ZM11.0273 57.3379H13.1172V55.4629C13.1172 54.9746 13.0944 54.5645 13.0488 54.2324C13.0033 53.8939 12.9121 53.64 12.7754 53.4707C12.6387 53.3014 12.4303 53.2168 12.1504 53.2168C11.8053 53.2168 11.5514 53.3177 11.3887 53.5195C11.2324 53.7214 11.1315 53.998 11.0859 54.3496C11.0469 54.6947 11.0273 55.0885 11.0273 55.5312V57.3379ZM18.673 66V51.3516H21.2609V52.9434C21.4042 52.4225 21.6646 51.9993 22.0422 51.6738C22.4263 51.3418 22.9471 51.1758 23.6047 51.1758C24.106 51.1758 24.5422 51.2865 24.9133 51.5078C25.2844 51.7292 25.5708 52.11 25.7727 52.6504C26.0201 52.1947 26.3456 51.8366 26.7492 51.5762C27.1529 51.3092 27.6574 51.1758 28.2629 51.1758C29.2134 51.1758 29.8872 51.4948 30.2844 52.1328C30.6815 52.7708 30.8801 53.653 30.8801 54.7793V66H28.302V54.75C28.302 54.2292 28.2141 53.8581 28.0383 53.6367C27.8625 53.4089 27.6216 53.2949 27.3156 53.2949C26.925 53.2949 26.619 53.4316 26.3977 53.7051C26.1828 53.972 26.0754 54.3659 26.0754 54.8867V66H23.4875V54.7305C23.4875 54.2943 23.4126 53.946 23.2629 53.6855C23.1197 53.4251 22.8755 53.2949 22.5305 53.2949C22.0813 53.2949 21.7557 53.4674 21.5539 53.8125C21.3586 54.151 21.2609 54.5547 21.2609 55.0234V66H18.673ZM34.2094 66V51.3516H36.7973V66H34.2094ZM34.1996 50.0039V47.7578H36.807V50.0039H34.1996ZM40.2145 66V51.3516H42.8023V53.0312C42.9326 52.5299 43.206 52.097 43.6227 51.7324C44.0393 51.3613 44.5504 51.1758 45.1559 51.1758C46.0022 51.1758 46.637 51.459 47.0602 52.0254C47.4833 52.5853 47.6949 53.3991 47.6949 54.4668V66H45.107V54.623C45.107 54.1999 45.0094 53.8678 44.8141 53.627C44.6253 53.3861 44.3648 53.2656 44.0328 53.2656C43.7659 53.2656 43.538 53.3405 43.3492 53.4902C43.1669 53.6335 43.0302 53.8353 42.9391 54.0957C42.8479 54.3496 42.8023 54.6491 42.8023 54.9941V66H40.2145ZM51.0242 66V51.3516H53.6121V66H51.0242ZM51.0145 50.0039V47.7578H53.6219V50.0039H51.0145ZM57.0293 66V51.3516H59.6172V53.0312C59.7474 52.5299 60.0208 52.097 60.4375 51.7324C60.8542 51.3613 61.3652 51.1758 61.9707 51.1758C62.8171 51.1758 63.4518 51.459 63.875 52.0254C64.2982 52.5853 64.5098 53.3991 64.5098 54.4668V66H61.9219V54.623C61.9219 54.1999 61.8242 53.8678 61.6289 53.627C61.4401 53.3861 61.1797 53.2656 60.8477 53.2656C60.5807 53.2656 60.3529 53.3405 60.1641 53.4902C59.9818 53.6335 59.8451 53.8353 59.7539 54.0957C59.6628 54.3496 59.6172 54.6491 59.6172 54.9941V66H57.0293ZM71.257 66.1758C70.5539 66.1758 69.9647 66.0684 69.4895 65.8535C69.0142 65.6322 68.6366 65.3164 68.3566 64.9062C68.0832 64.4896 67.8846 63.985 67.7609 63.3926C67.6438 62.7936 67.5852 62.1133 67.5852 61.3516V55.873C67.5852 54.9551 67.7023 54.1445 67.9367 53.4414C68.1776 52.7318 68.5682 52.1784 69.1086 51.7812C69.649 51.3776 70.3651 51.1758 71.257 51.1758C71.9341 51.1758 72.5038 51.2897 72.966 51.5176C73.4348 51.7454 73.8091 52.071 74.0891 52.4941C74.3755 52.9108 74.5839 53.4056 74.7141 53.9785C74.8443 54.5514 74.9094 55.1829 74.9094 55.873V61.3516C74.9094 62.1003 74.8508 62.7708 74.7336 63.3633C74.6229 63.9557 74.4276 64.4635 74.1477 64.8867C73.8742 65.3034 73.5031 65.6224 73.0344 65.8438C72.5656 66.0651 71.9732 66.1758 71.257 66.1758ZM71.257 64.0859C71.55 64.0859 71.7714 63.998 71.9211 63.8223C72.0708 63.64 72.1717 63.3893 72.2238 63.0703C72.2759 62.7513 72.302 62.3835 72.302 61.9668V55.4141C72.302 54.9714 72.2727 54.5905 72.2141 54.2715C72.1555 53.9525 72.0513 53.7051 71.9016 53.5293C71.7518 53.3535 71.537 53.2656 71.257 53.2656C70.9641 53.2656 70.7395 53.3535 70.5832 53.5293C70.4335 53.7051 70.3293 53.9525 70.2707 54.2715C70.2186 54.5905 70.1926 54.9714 70.1926 55.4141V61.9668C70.1926 62.3835 70.2186 62.7513 70.2707 63.0703C70.3293 63.3893 70.4335 63.64 70.5832 63.8223C70.7395 63.998 70.9641 64.0859 71.257 64.0859Z" fill="#3E0005"/>
<path fill-rule="evenodd" clip-rule="evenodd" d="M38 28.8283C43.9483 28.8283 48.6061 24.1644 48.6061 18.6111C48.6061 13.0578 43.9483 8.39394 38 8.39394C32.0517 8.39394 27.3939 13.0578 27.3939 18.6111C27.3939 24.1644 32.0517 28.8283 38 28.8283ZM52 18.6111C52 25.5699 46.6287 31.3089 39.697 32.1232V35.015H45.2246V38.4089H39.697V42.9597H36.3031V38.4089H30.7754V35.015H36.3031V32.1233C29.3714 31.309 24 25.5699 24 18.6111C24 11.0939 30.268 5 38 5C45.732 5 52 11.0939 52 18.6111Z" fill="#3E0005"/>
</svg>
