<svg width="70" height="70" viewBox="0 0 70 70" fill="none" xmlns="http://www.w3.org/2000/svg">
<path d="M5.2293 66V48.8125H7.84649V66H5.2293ZM11.2734 66V51.3516H13.8613V53.0312C13.9915 52.5299 14.265 52.097 14.6816 51.7324C15.0983 51.3613 15.6094 51.1758 16.2148 51.1758C17.0612 51.1758 17.696 51.459 18.1191 52.0254C18.5423 52.5853 18.7539 53.3991 18.7539 54.4668V66H16.166V54.623C16.166 54.1999 16.0684 53.8678 15.873 53.627C15.6842 53.3861 15.4238 53.2656 15.0918 53.2656C14.8249 53.2656 14.597 53.3405 14.4082 53.4902C14.2259 53.6335 14.0892 53.8353 13.998 54.0957C13.9069 54.3496 13.8613 54.6491 13.8613 54.9941V66H11.2734ZM22.5324 66V53.793H21.3996V51.9277H22.5422V51.166C22.5422 50.3457 22.7538 49.7109 23.177 49.2617C23.6001 48.806 24.2056 48.5781 24.9934 48.5781C25.397 48.5781 25.7453 48.6107 26.0383 48.6758C26.3378 48.7344 26.5266 48.7799 26.6047 48.8125V50.4434C26.4159 50.4173 26.2206 50.4043 26.0188 50.4043C25.6867 50.4043 25.4523 50.4727 25.3156 50.6094C25.1854 50.7461 25.1203 50.9577 25.1203 51.2441V51.9277H26.6047V53.793H25.1203V66H22.5324ZM31.477 66.1465C30.4743 66.1465 29.7777 65.7819 29.3871 65.0527C29.003 64.3236 28.8044 63.3568 28.7914 62.1523V61.2148C28.7914 60.4336 28.9021 59.7988 29.1234 59.3105C29.3513 58.8223 29.6736 58.4251 30.0902 58.1191C30.5069 57.8132 31.0049 57.5462 31.5844 57.3184C32.1638 57.0905 32.8083 56.8464 33.518 56.5859V55.3066C33.518 54.8118 33.4984 54.418 33.4594 54.125C33.4203 53.8255 33.3324 53.6074 33.1957 53.4707C33.059 53.334 32.8474 53.2656 32.5609 53.2656C32.281 53.2656 32.0661 53.3372 31.9164 53.4805C31.7732 53.6172 31.6755 53.832 31.6234 54.125C31.5714 54.4115 31.5453 54.7793 31.5453 55.2285V55.8828H28.9867V55.4434C28.9867 54.7728 29.0421 54.1738 29.1527 53.6465C29.2699 53.1191 29.4652 52.6732 29.7387 52.3086C30.0121 51.9375 30.3832 51.6576 30.852 51.4688C31.3272 51.2734 31.9229 51.1758 32.6391 51.1758C33.2706 51.1758 33.8109 51.2669 34.2602 51.4492C34.7094 51.625 35.074 51.8919 35.3539 52.25C35.6339 52.6016 35.8389 53.0443 35.9691 53.5781C36.0993 54.112 36.1645 54.7337 36.1645 55.4434V66H33.557V64.5449C33.4789 64.8249 33.3454 65.0885 33.1566 65.3359C32.9678 65.5768 32.7302 65.7721 32.4438 65.9219C32.1638 66.0716 31.8415 66.1465 31.477 66.1465ZM32.3754 64.1543C32.7009 64.1543 32.9613 64.0371 33.1566 63.8027C33.352 63.5684 33.4724 63.3307 33.518 63.0898V58.0508C33.1273 58.2266 32.7986 58.3926 32.5316 58.5488C32.2647 58.6986 32.0499 58.8646 31.8871 59.0469C31.7243 59.2292 31.6072 59.444 31.5355 59.6914C31.4639 59.9388 31.4281 60.2415 31.4281 60.5996V62.2402C31.4281 62.9108 31.4965 63.3991 31.6332 63.7051C31.7764 64.0046 32.0238 64.1543 32.3754 64.1543ZM39.357 66V51.3516H41.9449V53.0312C42.0751 52.5299 42.3486 52.097 42.7652 51.7324C43.1819 51.3613 43.693 51.1758 44.2984 51.1758C45.1448 51.1758 45.7796 51.459 46.2027 52.0254C46.6259 52.5853 46.8375 53.3991 46.8375 54.4668V66H44.2496V54.623C44.2496 54.1999 44.152 53.8678 43.9566 53.627C43.7678 53.3861 43.5074 53.2656 43.1754 53.2656C42.9085 53.2656 42.6806 53.3405 42.4918 53.4902C42.3095 53.6335 42.1728 53.8353 42.0816 54.0957C41.9905 54.3496 41.9449 54.6491 41.9449 54.9941V66H39.357ZM52.7645 66.0977C52.1395 66.0977 51.6609 66.0195 51.3289 65.8633C50.9969 65.7005 50.769 65.4466 50.6453 65.1016C50.5216 64.7565 50.4598 64.3105 50.4598 63.7637V53.5293H49.2684V51.6543H50.4598V48.8125H53.0477V51.6543H54.4734V53.5293H53.0477V63.3145C53.0477 63.5423 53.0835 63.7148 53.1551 63.832C53.2267 63.9492 53.3667 64.0273 53.575 64.0664C53.7898 64.1055 54.1056 64.125 54.5223 64.125V66.0977H52.7645ZM57.1973 66V51.3516H59.7852V66H57.1973ZM57.1875 50.0039V47.7578H59.7949V50.0039H57.1875ZM63.2121 66V48.666H65.7902V66H63.2121Z" fill="#3E0005"/>
<g opacity="0.5">
<path d="M43.8931 14.3052C49.2884 14.3053 53.6616 18.6794 53.6616 24.0747V33.1411H34.1235V24.0747C34.1235 18.6793 38.4977 14.3052 43.8931 14.3052Z" stroke="#3E0005" stroke-width="3.38462"/>
<path d="M43.8928 3.146C46.7383 3.14605 49.175 5.37094 49.175 8.27197C49.175 11.173 46.7383 13.3979 43.8928 13.3979C41.0473 13.3979 38.6106 11.1731 38.6106 8.27197C38.6106 5.3709 41.0473 3.146 43.8928 3.146Z" stroke="#3E0005" stroke-width="3.38462"/>
</g>
<path d="M21.9053 20.3145C25.5658 20.3145 28.534 23.2819 28.5342 26.9424V33.1416H15.2773V26.9424C15.2775 23.282 18.2449 20.3146 21.9053 20.3145Z" stroke="#3E0005" stroke-width="3.38462"/>
<path d="M21.9058 10.8716C24.2556 10.8716 26.2905 12.7122 26.2905 15.1392C26.2905 17.5661 24.2556 19.4067 21.9058 19.4067C19.5559 19.4067 17.521 17.5662 17.521 15.1392C17.521 12.7122 19.5559 10.8716 21.9058 10.8716Z" stroke="#3E0005" stroke-width="3.38462"/>
</svg>
