<svg width="86" height="70" viewBox="0 0 86 70" fill="none" xmlns="http://www.w3.org/2000/svg">
<path d="M0.766796 66V48.8125H4.01875L6.46016 61.3711L8.75508 48.8125H12.0266V66H9.69258V59.5938L9.79023 53.7148L7.47578 65.9219H5.3957L2.98359 53.7148L3.08125 59.5938V66H0.766796ZM17.7973 66.1465C16.7947 66.1465 16.098 65.7819 15.7074 65.0527C15.3233 64.3236 15.1247 63.3568 15.1117 62.1523V61.2148C15.1117 60.4336 15.2224 59.7988 15.4437 59.3105C15.6716 58.8223 15.9939 58.4251 16.4105 58.1191C16.8272 57.8132 17.3253 57.5462 17.9047 57.3184C18.4841 57.0905 19.1286 56.8464 19.8383 56.5859V55.3066C19.8383 54.8118 19.8187 54.418 19.7797 54.125C19.7406 53.8255 19.6527 53.6074 19.516 53.4707C19.3793 53.334 19.1677 53.2656 18.8812 53.2656C18.6013 53.2656 18.3865 53.3372 18.2367 53.4805C18.0935 53.6172 17.9958 53.832 17.9437 54.125C17.8917 54.4115 17.8656 54.7793 17.8656 55.2285V55.8828H15.307V55.4434C15.307 54.7728 15.3624 54.1738 15.473 53.6465C15.5902 53.1191 15.7855 52.6732 16.059 52.3086C16.3324 51.9375 16.7035 51.6576 17.1723 51.4688C17.6475 51.2734 18.2432 51.1758 18.9594 51.1758C19.5909 51.1758 20.1312 51.2669 20.5805 51.4492C21.0297 51.625 21.3943 51.8919 21.6742 52.25C21.9542 52.6016 22.1592 53.0443 22.2895 53.5781C22.4197 54.112 22.4848 54.7337 22.4848 55.4434V66H19.8773V64.5449C19.7992 64.8249 19.6658 65.0885 19.477 65.3359C19.2881 65.5768 19.0505 65.7721 18.7641 65.9219C18.4841 66.0716 18.1618 66.1465 17.7973 66.1465ZM18.6957 64.1543C19.0212 64.1543 19.2816 64.0371 19.477 63.8027C19.6723 63.5684 19.7927 63.3307 19.8383 63.0898V58.0508C19.4477 58.2266 19.1189 58.3926 18.852 58.5488C18.585 58.6986 18.3702 58.8646 18.2074 59.0469C18.0447 59.2292 17.9275 59.444 17.8559 59.6914C17.7842 59.9388 17.7484 60.2415 17.7484 60.5996V62.2402C17.7484 62.9108 17.8168 63.3991 17.9535 63.7051C18.0967 64.0046 18.3441 64.1543 18.6957 64.1543ZM28.7145 66.1855C27.5361 66.1855 26.6604 65.8503 26.0875 65.1797C25.5146 64.5091 25.2281 63.4121 25.2281 61.8887V60.9414H27.6598V62.123C27.6598 62.7611 27.7379 63.2461 27.8941 63.5781C28.0504 63.9102 28.3043 64.0762 28.6559 64.0762C28.9944 64.0762 29.2451 63.9622 29.4078 63.7344C29.5706 63.5065 29.652 63.1126 29.652 62.5527C29.652 62.2272 29.6031 61.9115 29.5055 61.6055C29.4143 61.2995 29.2678 61 29.066 60.707C28.8707 60.4076 28.6168 60.1178 28.3043 59.8379L26.9859 58.6465C26.3805 58.0996 25.928 57.5104 25.6285 56.8789C25.329 56.2409 25.1793 55.5378 25.1793 54.7695C25.1793 53.526 25.469 52.6178 26.0484 52.0449C26.6344 51.4655 27.5003 51.1758 28.6461 51.1758C29.3883 51.1758 30.0035 51.3158 30.4918 51.5957C30.9801 51.8691 31.3447 52.3151 31.5855 52.9336C31.8264 53.5521 31.9469 54.3822 31.9469 55.4238V56.2246H29.6324V55.2578C29.6324 54.6133 29.5576 54.125 29.4078 53.793C29.2646 53.4609 29.0172 53.2949 28.6656 53.2949C28.3206 53.2949 28.0667 53.3926 27.9039 53.5879C27.7411 53.7767 27.6533 54.112 27.6402 54.5938C27.6337 54.8542 27.6663 55.1113 27.7379 55.3652C27.8095 55.6126 27.9202 55.8568 28.0699 56.0977C28.2262 56.332 28.428 56.5632 28.6754 56.791L30.0621 58.0508C30.7913 58.7083 31.3284 59.3952 31.6734 60.1113C32.025 60.8275 32.2008 61.6022 32.2008 62.4355C32.2008 63.666 31.9208 64.6003 31.3609 65.2383C30.801 65.8698 29.9189 66.1855 28.7145 66.1855ZM38.4402 66.1758C37.6915 66.1758 37.073 66.0618 36.5848 65.834C36.0965 65.5996 35.7124 65.2643 35.4324 64.8281C35.159 64.3919 34.9669 63.8613 34.8563 63.2363C34.7456 62.6113 34.6902 61.9049 34.6902 61.1172V56.3711C34.6902 55.2904 34.7911 54.3626 34.993 53.5879C35.1948 52.8132 35.5659 52.2174 36.1063 51.8008C36.6531 51.3841 37.4409 51.1758 38.4695 51.1758C39.101 51.1758 39.6349 51.2734 40.0711 51.4688C40.5073 51.6641 40.8589 51.9473 41.1258 52.3184C41.3927 52.6829 41.5848 53.1257 41.702 53.6465C41.8257 54.1673 41.8875 54.7533 41.8875 55.4043V57.0156H39.3875V55.3164C39.3875 54.8932 39.368 54.5319 39.3289 54.2324C39.2898 53.9264 39.202 53.6953 39.0652 53.5391C38.9285 53.3763 38.7104 53.2949 38.4109 53.2949C38.118 53.2949 37.8901 53.3763 37.7273 53.5391C37.5646 53.7018 37.4507 53.9395 37.3855 54.252C37.327 54.5579 37.2977 54.9258 37.2977 55.3555V61.957C37.2977 62.3997 37.3237 62.7773 37.3758 63.0898C37.4344 63.4023 37.5385 63.6432 37.6883 63.8125C37.8445 63.9753 38.0724 64.0566 38.3719 64.0566C38.6648 64.0566 38.8829 63.972 39.0262 63.8027C39.1759 63.627 39.2736 63.3828 39.3191 63.0703C39.3647 62.7578 39.3875 62.39 39.3875 61.9668V60.2285H41.8875V61.7129C41.8875 62.3835 41.8289 62.9954 41.7117 63.5488C41.5945 64.0957 41.4025 64.5645 41.1355 64.9551C40.8686 65.3457 40.5138 65.6484 40.0711 65.8633C39.6284 66.0716 39.0848 66.1758 38.4402 66.1758ZM47.375 66.1855C46.7956 66.1855 46.3105 66.0553 45.9199 65.7949C45.5358 65.5345 45.2461 65.1471 45.0508 64.6328C44.862 64.112 44.7676 63.4609 44.7676 62.6797V51.3516H47.3652V62.2793C47.3652 62.8392 47.4336 63.2754 47.5703 63.5879C47.707 63.9004 47.9935 64.0566 48.4297 64.0566C48.8854 64.0566 49.1947 63.8809 49.3574 63.5293C49.5267 63.1712 49.6113 62.7611 49.6113 62.2988L49.6211 51.3516H52.1992V66H49.6113V64.4766C49.429 64.9714 49.1654 65.3815 48.8203 65.707C48.4753 66.026 47.9935 66.1855 47.375 66.1855ZM55.5285 66V48.666H58.1066V66H55.5285ZM61.5629 66V51.3516H64.1508V66H61.5629ZM61.5531 50.0039V47.7578H64.1605V50.0039H61.5531ZM67.568 66V51.3516H70.1559V53.0312C70.2861 52.5299 70.5595 52.097 70.9762 51.7324C71.3928 51.3613 71.9039 51.1758 72.5094 51.1758C73.3557 51.1758 73.9905 51.459 74.4137 52.0254C74.8368 52.5853 75.0484 53.3991 75.0484 54.4668V66H72.4605V54.623C72.4605 54.1999 72.3629 53.8678 72.1676 53.627C71.9788 53.3861 71.7184 53.2656 71.3863 53.2656C71.1194 53.2656 70.8915 53.3405 70.7027 53.4902C70.5204 53.6335 70.3837 53.8353 70.2926 54.0957C70.2014 54.3496 70.1559 54.6491 70.1559 54.9941V66H67.568ZM81.7957 66.1758C81.0926 66.1758 80.5034 66.0684 80.0281 65.8535C79.5529 65.6322 79.1753 65.3164 78.8953 64.9062C78.6219 64.4896 78.4233 63.985 78.2996 63.3926C78.1824 62.7936 78.1238 62.1133 78.1238 61.3516V55.873C78.1238 54.9551 78.241 54.1445 78.4754 53.4414C78.7163 52.7318 79.1069 52.1784 79.6473 51.7812C80.1876 51.3776 80.9038 51.1758 81.7957 51.1758C82.4728 51.1758 83.0424 51.2897 83.5047 51.5176C83.9734 51.7454 84.3478 52.071 84.6277 52.4941C84.9142 52.9108 85.1225 53.4056 85.2527 53.9785C85.3829 54.5514 85.448 55.1829 85.448 55.873V61.3516C85.448 62.1003 85.3895 62.7708 85.2723 63.3633C85.1616 63.9557 84.9663 64.4635 84.6863 64.8867C84.4129 65.3034 84.0418 65.6224 83.573 65.8438C83.1043 66.0651 82.5118 66.1758 81.7957 66.1758ZM81.7957 64.0859C82.0887 64.0859 82.31 63.998 82.4598 63.8223C82.6095 63.64 82.7104 63.3893 82.7625 63.0703C82.8146 62.7513 82.8406 62.3835 82.8406 61.9668V55.4141C82.8406 54.9714 82.8113 54.5905 82.7527 54.2715C82.6941 53.9525 82.59 53.7051 82.4402 53.5293C82.2905 53.3535 82.0756 53.2656 81.7957 53.2656C81.5027 53.2656 81.2781 53.3535 81.1219 53.5293C80.9721 53.7051 80.868 53.9525 80.8094 54.2715C80.7573 54.5905 80.7312 54.9714 80.7312 55.4141V61.9668C80.7312 62.3835 80.7573 62.7513 80.8094 63.0703C80.868 63.3893 80.9721 63.64 81.1219 63.8223C81.2781 63.998 81.5027 64.0859 81.7957 64.0859Z" fill="#3E0005"/>
<path fill-rule="evenodd" clip-rule="evenodd" d="M60.0981 7.91104L44.9169 7.00316C43.9854 6.94744 43.1862 7.63665 43.1321 8.54255C43.0779 9.44844 43.7892 10.228 44.7208 10.2837L55.8296 10.948L48.7863 17.0226C46.2775 14.419 42.7091 12.7922 38.75 12.7922C31.1561 12.7922 25 18.7772 25 26.1602C25 33.5432 31.1561 39.5283 38.75 39.5283C46.3439 39.5283 52.5 33.5432 52.5 26.1602C52.5 23.8155 51.8791 21.6118 50.7884 19.696L58.0764 13.4104L57.4304 24.2129C57.3762 25.1187 58.0875 25.8983 59.0191 25.954C59.9507 26.0097 60.7498 25.3205 60.804 24.4146L61.6868 9.65219C61.741 8.74629 61.0297 7.96675 60.0981 7.91104ZM49.1667 26.1602C49.1667 31.6143 44.5921 36.1949 38.75 36.1949C32.9079 36.1949 28.3333 31.6143 28.3333 26.1602C28.3333 20.7061 32.9079 16.1255 38.75 16.1255C44.5921 16.1255 49.1667 20.7061 49.1667 26.1602Z" fill="#3E0005"/>
</svg>
