<svg width="24" height="24" viewBox="0 0 24 24" fill="none" xmlns="http://www.w3.org/2000/svg">
<path d="M10.6289 6.65527C10.9112 5.13497 13.0888 5.13496 13.3711 6.65527C13.4282 6.96319 13.804 7.08544 14.0312 6.87012C15.1533 5.80542 16.9167 7.0863 16.251 8.48242C16.1161 8.76517 16.3486 9.08482 16.6592 9.04395C18.1926 8.84235 18.8661 10.9152 17.5068 11.6533C17.2315 11.8028 17.2315 12.1972 17.5068 12.3467C18.8661 13.0848 18.1926 15.1576 16.6592 14.9561C16.3486 14.9152 16.1161 15.2348 16.251 15.5176C16.9167 16.9137 15.1533 18.1946 14.0312 17.1299C13.804 16.9146 13.4282 17.0368 13.3711 17.3447C13.0888 18.865 10.9112 18.865 10.6289 17.3447C10.5718 17.0368 10.196 16.9146 9.96875 17.1299C8.84672 18.1946 7.08326 16.9137 7.74902 15.5176C7.88388 15.2348 7.65141 14.9152 7.34082 14.9561C5.80741 15.1576 5.13391 13.0848 6.49316 12.3467C6.76846 12.1972 6.76846 11.8028 6.49316 11.6533C5.13391 10.9152 5.80741 8.84235 7.34082 9.04395C7.65141 9.08482 7.88388 8.76517 7.74902 8.48242C7.08326 7.0863 8.84672 5.80542 9.96875 6.87012C10.196 7.08544 10.5718 6.96318 10.6289 6.65527Z" stroke="#4E8098"/>
<path d="M9.5 14.5L14.5 9.5" stroke="#4E8098" stroke-width="1.5" stroke-linecap="round"/>
<circle cx="13.25" cy="14.5" r="1.25" fill="#4E8098"/>
<circle cx="10.75" cy="9.5" r="1.25" fill="#4E8098"/>
</svg>
