<svg width="70" height="70" viewBox="0 0 70 70" fill="none" xmlns="http://www.w3.org/2000/svg">
<path d="M7.86367 68.1953C6.97174 68.1953 6.24583 68.0293 5.68594 67.6973C5.12604 67.3587 4.71588 66.8509 4.45547 66.1738C4.19505 65.4902 4.06484 64.6276 4.06484 63.5859V50.8125H6.68203V63.5371C6.68203 64.0189 6.70156 64.4421 6.74062 64.8066C6.7862 65.1712 6.89036 65.4544 7.05312 65.6562C7.21588 65.8581 7.48281 65.959 7.8539 65.959C8.225 65.959 8.49193 65.8613 8.65469 65.666C8.82396 65.4642 8.92812 65.181 8.96719 64.8164C9.00625 64.4518 9.02578 64.0254 9.02578 63.5371V50.8125H11.643V63.5859C11.643 64.6276 11.5128 65.4902 11.2523 66.1738C10.9984 66.8509 10.5915 67.3587 10.0316 67.6973C9.47825 68.0293 8.7556 68.1953 7.86367 68.1953ZM14.8844 68V53.3516H17.4723V55.0312C17.6025 54.5299 17.8759 54.097 18.2926 53.7324C18.7092 53.3613 19.2203 53.1758 19.8258 53.1758C20.6721 53.1758 21.3069 53.459 21.7301 54.0254C22.1533 54.5853 22.3648 55.3991 22.3648 56.4668V68H19.777V56.623C19.777 56.1999 19.6793 55.8678 19.484 55.627C19.2952 55.3861 19.0348 55.2656 18.7027 55.2656C18.4358 55.2656 18.2079 55.3405 18.0191 55.4902C17.8368 55.6335 17.7001 55.8353 17.609 56.0957C17.5178 56.3496 17.4723 56.6491 17.4723 56.9941V68H14.8844ZM25.6941 68V53.3516H28.282V68H25.6941ZM25.6844 52.0039V49.7578H28.2918V52.0039H25.6844ZM34.7363 68.1855C33.5579 68.1855 32.6823 67.8503 32.1094 67.1797C31.5365 66.5091 31.25 65.4121 31.25 63.8887V62.9414H33.6816V64.123C33.6816 64.7611 33.7598 65.2461 33.916 65.5781C34.0723 65.9102 34.3262 66.0762 34.6777 66.0762C35.0163 66.0762 35.2669 65.9622 35.4297 65.7344C35.5924 65.5065 35.6738 65.1126 35.6738 64.5527C35.6738 64.2272 35.625 63.9115 35.5273 63.6055C35.4362 63.2995 35.2897 63 35.0879 62.707C34.8926 62.4076 34.6387 62.1178 34.3262 61.8379L33.0078 60.6465C32.4023 60.0996 31.9499 59.5104 31.6504 58.8789C31.3509 58.2409 31.2012 57.5378 31.2012 56.7695C31.2012 55.526 31.4909 54.6178 32.0703 54.0449C32.6562 53.4655 33.5221 53.1758 34.668 53.1758C35.4102 53.1758 36.0254 53.3158 36.5137 53.5957C37.002 53.8691 37.3665 54.3151 37.6074 54.9336C37.8483 55.5521 37.9687 56.3822 37.9687 57.4238V58.2246H35.6543V57.2578C35.6543 56.6133 35.5794 56.125 35.4297 55.793C35.2865 55.4609 35.0391 55.2949 34.6875 55.2949C34.3424 55.2949 34.0885 55.3926 33.9258 55.5879C33.763 55.7767 33.6751 56.112 33.6621 56.5938C33.6556 56.8542 33.6881 57.1113 33.7598 57.3652C33.8314 57.6126 33.9421 57.8568 34.0918 58.0977C34.248 58.332 34.4499 58.5632 34.6973 58.791L36.084 60.0508C36.8131 60.7083 37.3503 61.3952 37.6953 62.1113C38.0469 62.8275 38.2227 63.6022 38.2227 64.4355C38.2227 65.666 37.9427 66.6003 37.3828 67.2383C36.8229 67.8698 35.9408 68.1855 34.7363 68.1855ZM43.9543 68.1855C42.7759 68.1855 41.9003 67.8503 41.3273 67.1797C40.7544 66.5091 40.468 65.4121 40.468 63.8887V62.9414H42.8996V64.123C42.8996 64.7611 42.9777 65.2461 43.134 65.5781C43.2902 65.9102 43.5441 66.0762 43.8957 66.0762C44.2342 66.0762 44.4849 65.9622 44.6477 65.7344C44.8104 65.5065 44.8918 65.1126 44.8918 64.5527C44.8918 64.2272 44.843 63.9115 44.7453 63.6055C44.6542 63.2995 44.5077 63 44.3059 62.707C44.1105 62.4076 43.8566 62.1178 43.5441 61.8379L42.2258 60.6465C41.6203 60.0996 41.1678 59.5104 40.8684 58.8789C40.5689 58.2409 40.4191 57.5378 40.4191 56.7695C40.4191 55.526 40.7089 54.6178 41.2883 54.0449C41.8742 53.4655 42.7401 53.1758 43.8859 53.1758C44.6281 53.1758 45.2434 53.3158 45.7316 53.5957C46.2199 53.8691 46.5845 54.3151 46.8254 54.9336C47.0663 55.5521 47.1867 56.3822 47.1867 57.4238V58.2246H44.8723V57.2578C44.8723 56.6133 44.7974 56.125 44.6477 55.793C44.5044 55.4609 44.257 55.2949 43.9055 55.2949C43.5604 55.2949 43.3065 55.3926 43.1437 55.5879C42.981 55.7767 42.8931 56.112 42.8801 56.5938C42.8736 56.8542 42.9061 57.1113 42.9777 57.3652C43.0493 57.6126 43.16 57.8568 43.3098 58.0977C43.466 58.332 43.6678 58.5632 43.9152 58.791L45.302 60.0508C46.0311 60.7083 46.5682 61.3952 46.9133 62.1113C47.2648 62.8275 47.4406 63.6022 47.4406 64.4355C47.4406 65.666 47.1607 66.6003 46.6008 67.2383C46.0409 67.8698 45.1587 68.1855 43.9543 68.1855ZM53.5531 68.1758C52.8174 68.1758 52.212 68.0586 51.7367 67.8242C51.268 67.5898 50.9001 67.2513 50.6332 66.8086C50.3728 66.3659 50.1905 65.8353 50.0863 65.2168C49.9822 64.5918 49.9301 63.8952 49.9301 63.127V57.668C49.9301 56.9844 49.9984 56.3659 50.1352 55.8125C50.2784 55.2591 50.4965 54.7871 50.7895 54.3965C51.0889 54.0059 51.4763 53.7064 51.9516 53.498C52.4268 53.2832 52.9997 53.1758 53.6703 53.1758C54.3539 53.1758 54.9236 53.2799 55.3793 53.4883C55.835 53.6966 56.1931 53.9993 56.4535 54.3965C56.7204 54.7936 56.9092 55.2721 57.0199 55.832C57.1371 56.3854 57.1957 57.0137 57.1957 57.7168V60.8516H52.5375V63.7324C52.5375 64.4421 52.5928 65.0117 52.7035 65.4414C52.8142 65.8711 53.1169 66.0859 53.6117 66.0859C53.9437 66.0859 54.1781 65.985 54.3148 65.7832C54.4581 65.5814 54.5427 65.3047 54.5687 64.9531C54.6013 64.5951 54.6176 64.1882 54.6176 63.7324V62.4434H57.1762V63.2246C57.1762 64.0124 57.1273 64.7122 57.0297 65.3242C56.9385 65.9362 56.7628 66.4538 56.5023 66.877C56.2484 67.3001 55.8839 67.6224 55.4086 67.8438C54.9333 68.0651 54.3148 68.1758 53.5531 68.1758ZM52.5277 59.3379H54.6176V57.4629C54.6176 56.9746 54.5948 56.5645 54.5492 56.2324C54.5036 55.8939 54.4125 55.64 54.2758 55.4707C54.1391 55.3014 53.9307 55.2168 53.6508 55.2168C53.3057 55.2168 53.0518 55.3177 52.8891 55.5195C52.7328 55.7214 52.6319 55.998 52.5863 56.3496C52.5473 56.6947 52.5277 57.0885 52.5277 57.5312V59.3379ZM59.1578 68L61.7652 60.3535L59.3238 53.3516H61.6187L63.1227 57.5801L64.4117 53.3516H66.6969L64.2164 60.627L66.8434 68H64.441L62.9078 63.6152L61.5504 68H59.1578Z" fill="#3E0005"/>
<path fill-rule="evenodd" clip-rule="evenodd" d="M52.0981 2.91104L36.9169 2.00315C35.9854 1.94744 35.1862 2.63665 35.1321 3.54255C35.0779 4.44844 35.7892 5.22798 36.7208 5.28369L47.8296 5.94804L40.7863 12.0226C38.2775 9.41898 34.7091 7.79215 30.75 7.79215C23.1561 7.79215 17 13.7772 17 21.1602C17 28.5432 23.1561 34.5283 30.75 34.5283C38.3439 34.5283 44.5 28.5432 44.5 21.1602C44.5 18.8155 43.8791 16.6118 42.7884 14.696L50.0764 8.41039L49.4304 19.2128C49.3762 20.1187 50.0875 20.8983 51.0191 20.954C51.9507 21.0097 52.7498 20.3205 52.804 19.4146L53.6868 4.65218C53.741 3.74629 53.0297 2.96675 52.0981 2.91104ZM41.1667 21.1602C41.1667 26.6143 36.5921 31.1949 30.75 31.1949C24.9079 31.1949 20.3333 26.6143 20.3333 21.1602C20.3333 15.7061 24.9079 11.1255 30.75 11.1255C36.5921 11.1255 41.1667 15.7061 41.1667 21.1602Z" fill="#3E0005"/>
<line x1="31.2247" y1="45.4014" x2="31.2247" y2="33.0002" stroke="#3E0005" stroke-width="3.39394"/>
<line x1="24" y1="39.1536" x2="38.4492" y2="39.1536" stroke="#3E0005" stroke-width="3.39394"/>
</svg>
