<svg width="70" height="70" viewBox="0 0 70 70" fill="none" xmlns="http://www.w3.org/2000/svg">
<path d="M14.5426 66L11.8766 48.8125H14.3668L15.4898 56.5762L16.1832 62.0449H16.2516L16.8473 56.5762L17.7848 48.8125H20.2262L17.775 66H14.5426ZM25.7918 66.1758C25.0561 66.1758 24.4507 66.0586 23.9754 65.8242C23.5066 65.5898 23.1388 65.2513 22.8719 64.8086C22.6115 64.3659 22.4292 63.8353 22.325 63.2168C22.2208 62.5918 22.1688 61.8952 22.1688 61.127V55.668C22.1688 54.9844 22.2371 54.3659 22.3738 53.8125C22.5171 53.2591 22.7352 52.7871 23.0281 52.3965C23.3276 52.0059 23.715 51.7064 24.1902 51.498C24.6655 51.2832 25.2384 51.1758 25.909 51.1758C26.5926 51.1758 27.1622 51.2799 27.618 51.4883C28.0737 51.6966 28.4318 51.9993 28.6922 52.3965C28.9591 52.7936 29.1479 53.2721 29.2586 53.832C29.3758 54.3854 29.4344 55.0137 29.4344 55.7168V58.8516H24.7762V61.7324C24.7762 62.4421 24.8315 63.0117 24.9422 63.4414C25.0529 63.8711 25.3556 64.0859 25.8504 64.0859C26.1824 64.0859 26.4168 63.985 26.5535 63.7832C26.6967 63.5814 26.7814 63.3047 26.8074 62.9531C26.84 62.5951 26.8563 62.1882 26.8563 61.7324V60.4434H29.4148V61.2246C29.4148 62.0124 29.366 62.7122 29.2684 63.3242C29.1772 63.9362 29.0014 64.4538 28.741 64.877C28.4871 65.3001 28.1225 65.6224 27.6473 65.8438C27.172 66.0651 26.5535 66.1758 25.7918 66.1758ZM24.7664 57.3379H26.8563V55.4629C26.8563 54.9746 26.8335 54.5645 26.7879 54.2324C26.7423 53.8939 26.6512 53.64 26.5145 53.4707C26.3777 53.3014 26.1694 53.2168 25.8895 53.2168C25.5444 53.2168 25.2905 53.3177 25.1277 53.5195C24.9715 53.7214 24.8706 53.998 24.825 54.3496C24.7859 54.6947 24.7664 55.0885 24.7664 55.5312V57.3379ZM32.4219 66V51.3516H35.0293V52.9824C35.1986 52.416 35.4915 51.9733 35.9082 51.6543C36.3314 51.3353 36.8685 51.1758 37.5195 51.1758C37.5326 51.1758 37.5391 51.2865 37.5391 51.5078C37.5456 51.7292 37.5488 51.9831 37.5488 52.2695C37.5488 52.556 37.5488 52.8099 37.5488 53.0312C37.5488 53.2526 37.5488 53.3633 37.5488 53.3633C37.2493 53.3633 36.9238 53.3991 36.5723 53.4707C36.2272 53.5423 35.9115 53.653 35.625 53.8027C35.3451 53.946 35.1465 54.138 35.0293 54.3789V66H32.4219ZM42.4211 66.1465C41.4185 66.1465 40.7219 65.7819 40.3312 65.0527C39.9471 64.3236 39.7486 63.3568 39.7355 62.1523V61.2148C39.7355 60.4336 39.8462 59.7988 40.0676 59.3105C40.2954 58.8223 40.6177 58.4251 41.0344 58.1191C41.451 57.8132 41.9491 57.5462 42.5285 57.3184C43.1079 57.0905 43.7525 56.8464 44.4621 56.5859V55.3066C44.4621 54.8118 44.4426 54.418 44.4035 54.125C44.3645 53.8255 44.2766 53.6074 44.1398 53.4707C44.0031 53.334 43.7915 53.2656 43.5051 53.2656C43.2251 53.2656 43.0103 53.3372 42.8605 53.4805C42.7173 53.6172 42.6197 53.832 42.5676 54.125C42.5155 54.4115 42.4895 54.7793 42.4895 55.2285V55.8828H39.9309V55.4434C39.9309 54.7728 39.9862 54.1738 40.0969 53.6465C40.2141 53.1191 40.4094 52.6732 40.6828 52.3086C40.9562 51.9375 41.3273 51.6576 41.7961 51.4688C42.2714 51.2734 42.8671 51.1758 43.5832 51.1758C44.2147 51.1758 44.7551 51.2669 45.2043 51.4492C45.6535 51.625 46.0181 51.8919 46.298 52.25C46.578 52.6016 46.7831 53.0443 46.9133 53.5781C47.0435 54.112 47.1086 54.7337 47.1086 55.4434V66H44.5012V64.5449C44.423 64.8249 44.2896 65.0885 44.1008 65.3359C43.912 65.5768 43.6743 65.7721 43.3879 65.9219C43.1079 66.0716 42.7857 66.1465 42.4211 66.1465ZM43.3195 64.1543C43.6451 64.1543 43.9055 64.0371 44.1008 63.8027C44.2961 63.5684 44.4165 63.3307 44.4621 63.0898V58.0508C44.0715 58.2266 43.7427 58.3926 43.4758 58.5488C43.2089 58.6986 42.994 58.8646 42.8312 59.0469C42.6685 59.2292 42.5513 59.444 42.4797 59.6914C42.4081 59.9388 42.3723 60.2415 42.3723 60.5996V62.2402C42.3723 62.9108 42.4406 63.3991 42.5773 63.7051C42.7206 64.0046 42.968 64.1543 43.3195 64.1543ZM44.9797 49.9844C44.6932 49.9844 44.3872 49.9193 44.0617 49.7891C43.7362 49.6523 43.4139 49.5189 43.0949 49.3887C42.7759 49.252 42.4797 49.1836 42.2062 49.1836C42.1021 49.1836 42.0272 49.1901 41.9816 49.2031C41.8775 49.2292 41.7896 49.291 41.718 49.3887C41.6529 49.4798 41.5747 49.61 41.4836 49.7793L40.2141 49.2715C40.3443 48.8288 40.5005 48.4805 40.6828 48.2266C40.8651 47.9661 41.0734 47.7806 41.3078 47.6699C41.5422 47.5527 41.8026 47.4941 42.0891 47.4941C42.356 47.4941 42.6652 47.556 43.0168 47.6797C43.3749 47.7969 43.7167 47.9173 44.0422 48.041C44.3677 48.1582 44.6118 48.2168 44.7746 48.2168H44.8137C44.9048 48.2038 44.9927 48.1582 45.0773 48.0801C45.162 48.002 45.2564 47.8164 45.3605 47.5234L46.7473 47.7969L46.6594 48.2656C46.5161 48.9362 46.3078 49.3919 46.0344 49.6328C45.7674 49.8672 45.4159 49.9844 44.9797 49.9844ZM53.768 66.1758C53.0648 66.1758 52.4756 66.0684 52.0004 65.8535C51.5251 65.6322 51.1475 65.3164 50.8676 64.9062C50.5941 64.4896 50.3956 63.985 50.2719 63.3926C50.1547 62.7936 50.0961 62.1133 50.0961 61.3516V55.873C50.0961 54.9551 50.2133 54.1445 50.4477 53.4414C50.6885 52.7318 51.0792 52.1784 51.6195 51.7812C52.1599 51.3776 52.876 51.1758 53.768 51.1758C54.4451 51.1758 55.0147 51.2897 55.477 51.5176C55.9457 51.7454 56.3201 52.071 56.6 52.4941C56.8865 52.9108 57.0948 53.4056 57.225 53.9785C57.3552 54.5514 57.4203 55.1829 57.4203 55.873V61.3516C57.4203 62.1003 57.3617 62.7708 57.2445 63.3633C57.1339 63.9557 56.9385 64.4635 56.6586 64.8867C56.3852 65.3034 56.0141 65.6224 55.5453 65.8438C55.0766 66.0651 54.4841 66.1758 53.768 66.1758ZM53.768 64.0859C54.0609 64.0859 54.2823 63.998 54.432 63.8223C54.5818 63.64 54.6827 63.3893 54.7348 63.0703C54.7868 62.7513 54.8129 62.3835 54.8129 61.9668V55.4141C54.8129 54.9714 54.7836 54.5905 54.725 54.2715C54.6664 53.9525 54.5622 53.7051 54.4125 53.5293C54.2628 53.3535 54.0479 53.2656 53.768 53.2656C53.475 53.2656 53.2504 53.3535 53.0941 53.5293C52.9444 53.7051 52.8402 53.9525 52.7816 54.2715C52.7296 54.5905 52.7035 54.9714 52.7035 55.4141V61.9668C52.7035 62.3835 52.7296 62.7513 52.7816 63.0703C52.8402 63.3893 52.9444 63.64 53.0941 63.8223C53.2504 63.998 53.475 64.0859 53.768 64.0859Z" fill="#3E0005"/>
<path fill-rule="evenodd" clip-rule="evenodd" d="M36.9742 1.9131C36.9742 0.856551 36.1177 2.86261e-05 35.0612 0C34.0046 -2.86951e-05 33.1481 0.856447 33.1481 1.91299L33.1479 8.57318C33.1479 9.62973 34.0043 10.4862 35.0609 10.4863C36.1174 10.4863 36.974 9.62983 36.974 8.57328L36.9742 1.9131ZM26.9666 14.4578C26.2875 15.2671 25.0808 15.3727 24.2715 14.6936L19.1695 10.4125C18.3601 9.73334 18.2545 8.52668 18.9337 7.71732C19.6128 6.90796 20.8195 6.80239 21.6288 7.48152L26.7308 11.7626C27.5402 12.4417 27.6458 13.6484 26.9666 14.4578ZM19.4426 34.897C18.7635 34.0876 18.8691 32.8809 19.6784 32.2018L24.7804 27.9207C25.5898 27.2416 26.7964 27.3472 27.4756 28.1565C28.1547 28.9659 28.0491 30.1725 27.2398 30.8517L22.1378 35.1328C21.3284 35.8119 20.1218 35.7063 19.4426 34.897ZM47.9774 35.0229C48.7867 35.702 49.9934 35.5964 50.6725 34.7871C51.3517 33.9777 51.2461 32.771 50.4367 32.0919L45.4557 27.9124C44.6464 27.2332 43.4397 27.3388 42.7606 28.1482C42.0815 28.9575 42.187 30.1642 42.9964 30.8433L47.9774 35.0229ZM35.0502 42.122C36.1067 42.128 36.9681 41.2764 36.9741 40.2199L37.0123 33.5598C37.0183 32.5033 36.1668 31.6419 35.1102 31.6359C34.0537 31.6298 33.1923 32.4814 33.1863 33.5379L33.1481 40.198C33.1421 41.2545 33.9936 42.1159 35.0502 42.122ZM45.6361 21.0611C45.6361 20.0046 46.4926 19.1481 47.5491 19.1481H54.2093C55.2659 19.1481 56.1223 20.0046 56.1223 21.0611C56.1223 22.1177 55.2659 22.9742 54.2093 22.9742H47.5491C46.4926 22.9742 45.6361 22.1177 45.6361 21.0611ZM15.913 19.9805C14.8565 19.9805 14 20.837 14 21.8935C14 22.9501 14.8565 23.8066 15.913 23.8066H22.5732C23.6298 23.8066 24.4863 22.9501 24.4863 21.8935C24.4863 20.837 23.6298 19.9805 22.5732 19.9805H15.913ZM43.0961 14.4244C42.4169 13.6151 42.5225 12.4084 43.3319 11.7293L48.4339 7.4482C49.2432 6.76906 50.4499 6.87463 51.129 7.68399C51.8081 8.49335 51.7026 9.70002 50.8932 10.3791L45.7912 14.6602C44.9819 15.3394 43.7752 15.2338 43.0961 14.4244ZM35.0611 29.8823C39.9329 29.8823 43.8823 25.9329 43.8823 21.0611C43.8823 16.1892 39.9329 12.2398 35.0611 12.2398C30.1892 12.2398 26.2398 16.1892 26.2398 21.0611C26.2398 25.9329 30.1892 29.8823 35.0611 29.8823ZM40.0562 21.0611C40.0562 23.8198 37.8198 26.0562 35.0611 26.0562C32.3023 26.0562 30.0659 23.8198 30.0659 21.0611C30.0659 18.3023 32.3023 16.0659 35.0611 16.0659C37.8198 16.0659 40.0562 18.3023 40.0562 21.0611Z" fill="#3E0005"/>
</svg>
